HIERARCHY
ROOT hip
{
	OFFSET 0.000000 0.000000 0.000000 
	CHANNELS 6 Xposition Yposition Zposition Zrotation Xrotation Yrotation
	JOINT abdomen
	{
		OFFSET 0.000000 3.402643 0.000000 
		CHANNELS 3 Zrotation Xrotation Yrotation
		JOINT chest
		{
			OFFSET 0.000000 8.438565 -0.680529 
			CHANNELS 3 Zrotation Xrotation Yrotation
			JOINT neck
			{
				OFFSET 0.000000 10.207942 -0.272212 
				CHANNELS 3 Zrotation Xrotation Yrotation
				JOINT head
				{
					OFFSET 0.000000 3.130431 0.000000 
					CHANNELS 3 Zrotation Xrotation Yrotation
					End Site
					{
						OFFSET 0.000000 3.130435 0.000000 
					}
				}
			}
			JOINT lCollar
			{
				OFFSET 3.470700 6.669187 -0.816635 
				CHANNELS 3 Zrotation Xrotation Yrotation
				JOINT lShldr
				{
					OFFSET 3.198488 0.000000 0.000000 
					CHANNELS 3 Zrotation Xrotation Yrotation
					JOINT lForeArm
					{
						OFFSET 10.139888 0.000000 0.000000 
						CHANNELS 3 Zrotation Xrotation Yrotation
						JOINT lHand
						{
							OFFSET 8.370511 0.000000 0.000000 
							CHANNELS 3 Zrotation Xrotation Yrotation
							End Site
							{
								OFFSET 4.083176 0.000000 0.000000 
							}
						}
					}
				}
			}
			JOINT rCollar
			{
				OFFSET -3.470700 6.669187 -0.816635 
				CHANNELS 3 Zrotation Xrotation Yrotation
				JOINT rShldr
				{
					OFFSET -3.198488 0.000000 0.000000 
					CHANNELS 3 Zrotation Xrotation Yrotation
					JOINT rForeArm
					{
						OFFSET -10.139888 0.000000 0.000000 
						CHANNELS 3 Zrotation Xrotation Yrotation
						JOINT rHand
						{
							OFFSET -8.370511 0.000000 0.000000 
							CHANNELS 3 Zrotation Xrotation Yrotation
							End Site
							{
								OFFSET -4.083176 0.000000 0.000000 
							}
						}
					}
				}
			}
		}
	}
	JOINT lThigh
	{
		OFFSET 5.308129 -1.633274 1.361059 
		CHANNELS 3 Zrotation Xrotation Yrotation
		JOINT lShin
		{
			OFFSET -2.041588 -20.007561 0.000000 
			CHANNELS 3 Zrotation Xrotation Yrotation
			JOINT lFoot
			{
				OFFSET 0.000000 -19.190928 -1.224953 
				CHANNELS 3 Zrotation Xrotation Yrotation
				End Site
				{
					OFFSET 0.000000 -2.449906 4.627600 
				}
			}
		}
	}
	JOINT rThigh
	{
		OFFSET -5.308129 -1.633274 1.361059 
		CHANNELS 3 Zrotation Xrotation Yrotation
		JOINT rShin
		{
			OFFSET 2.041588 -20.007561 0.000000 
			CHANNELS 3 Zrotation Xrotation Yrotation
			JOINT rFoot
			{
				OFFSET 0.000000 -19.190928 -1.224953 
				CHANNELS 3 Zrotation Xrotation Yrotation
				End Site
				{
					OFFSET 0.000000 -2.449906 4.627600 
				}
			}
		}
	}
}
MOTION
Frames: 18
Frame Time: 0.033333
0.009534 47.744843 0.206921 -0.234375 -0.000019 -0.117188 1.250000 0.000002 -0.000000 1.142662 -0.693221 0.697420 0.000000 -0.000003 4.570314 0.136723 -0.429686 1.143603 -5.314288 -1.676180 1.322901 -61.331806 9.012368 8.929481 -10.180217 -5.501352 -28.682367 0.345485 0.227714 -3.307145 5.682166 -0.144749 -0.767699 64.214668 10.699679 -9.005495 7.385756 -5.272405 24.336618 1.420384 0.355091 3.279180 3.255962 -8.496101 0.838719 -2.913538 16.557505 -0.488986 -0.438679 -8.489312 0.571715 -6.509153 -8.844141 -1.448145 2.414613 16.872927 0.254563 3.318169 -6.797689 -3.672654 
0.019065 47.776066 0.122174 -0.458984 -0.000025 -0.234375 2.509766 0.000000 -0.000000 2.285815 -1.375857 1.422101 0.000000 -0.000003 9.140627 0.283235 -0.859366 2.289404 -4.975389 -3.092339 0.643009 -50.049030 2.246607 7.681719 -15.117263 -13.610948 -39.434669 -5.242210 0.521335 -3.275496 5.683969 -0.019996 0.485875 55.735001 5.630812 -7.742663 7.980072 -14.199461 30.334249 8.832845 0.738345 3.219865 3.534721 -8.594893 0.779633 -2.853942 16.610874 -0.392119 -0.530019 -8.452612 0.549445 -8.554133 -8.860464 -0.659896 2.461442 16.225370 -0.056633 5.769655 -4.456080 -6.793955 
0.028599 47.807297 0.037428 -0.693359 0.000002 -0.351562 3.769531 0.000000 -0.000000 3.429946 -2.056858 2.174617 -0.000000 -0.000003 13.710938 0.420028 -1.289027 3.437181 -4.671048 -4.518308 -0.039055 -39.036552 -4.558776 6.563826 -23.433146 -19.657194 -51.806511 -10.832516 0.809323 -3.208706 5.683071 0.103802 1.739450 47.484261 0.542185 -6.562793 10.688749 -22.831959 37.611340 16.242264 1.119300 3.090998 3.832974 -8.729997 0.756796 -2.985525 16.648706 -0.352010 -0.497463 -8.348360 0.694050 -10.565258 -8.376502 -1.552703 2.266759 14.565206 0.236155 7.958037 -1.361341 -9.021312 
0.038131 47.838516 -0.047319 -0.917969 -0.000011 -0.458984 5.019530 0.000002 -0.000000 4.575538 -2.735408 2.953201 0.000000 -0.000003 18.281252 0.566661 -1.718667 4.587308 -4.401756 -5.960629 -0.724508 -28.283478 -11.392910 5.509271 -34.640186 -22.474615 -65.546944 -16.425117 1.086799 -3.106542 5.679422 0.228514 2.983321 39.438595 -4.569280 -5.437253 15.978088 -30.662893 46.742264 23.668617 1.479823 2.927737 4.120174 -8.814048 0.805782 -2.864203 16.638882 -0.390862 -0.609784 -8.238728 0.787569 -12.538263 -7.347082 -1.461429 2.144129 11.756560 0.140597 10.158813 2.263024 -12.062211 
-0.292931 47.249031 0.031356 -1.152344 -0.000019 -0.576172 6.279296 0.000002 -0.000000 5.723119 -3.420402 3.771296 0.000000 -0.000005 23.359377 0.850291 -2.294669 5.746935 -4.169058 -7.398653 -1.424447 -17.779671 -18.247524 4.493997 -47.357960 -21.306101 -79.401291 -22.007370 1.358433 -2.987973 5.673058 0.353114 4.236922 31.581182 -9.709668 -4.339626 24.341581 -37.007820 58.344494 31.088312 1.822921 2.712157 5.065440 -12.347937 1.240547 -3.624260 24.349695 -0.433705 -0.492255 -12.455659 0.917980 -14.877970 -10.526610 -1.673798 2.581782 18.292654 0.161369 12.114405 1.073701 -14.529959 
-0.340134 46.948456 0.050388 -1.435547 0.019527 -0.683349 7.470703 0.000000 -0.009766 6.853405 -4.082052 4.581984 -0.000000 -0.000002 27.197268 0.723515 -2.792747 6.539283 -3.968624 -8.816354 -2.110565 -6.198797 -24.989019 3.469675 -57.154968 -26.495884 -84.567139 -21.214336 1.298391 -2.986706 5.664304 0.473701 5.461401 20.965155 -14.547609 -3.268978 27.030653 -42.872868 61.764164 38.947525 2.146085 2.444907 5.570085 -13.755021 1.497563 -3.838940 27.356752 -0.485403 -0.436045 -13.978133 0.963892 -16.639044 -11.386377 -2.369993 2.627061 19.862104 0.206845 13.669337 2.193389 -16.040367 
-0.182497 46.727577 0.038176 -1.699219 0.019501 -0.809969 8.818360 -0.000002 -0.000000 8.095050 -4.805388 5.516635 -0.000000 -0.000004 29.199219 0.752943 -2.939198 7.089503 -3.804138 -10.390810 -2.874562 6.694746 -32.421082 2.267665 -66.769615 -37.929161 -88.525864 -16.081192 1.008416 -3.079937 5.651342 0.609454 6.821995 4.547978 -19.793268 -2.055054 27.175501 -48.370193 63.723293 47.176250 2.448843 2.092076 5.788680 -14.577640 1.579396 -4.042152 29.096622 -0.418069 -0.174773 -14.993243 1.092620 -17.662424 -11.932301 -2.134779 2.868020 20.550070 0.169703 14.740934 2.867993 -17.359802 
-0.062283 46.346581 0.053428 -1.660156 -0.048818 -0.899857 9.892578 -0.009619 0.001677 8.964363 -5.296217 6.187291 0.000002 -0.000004 30.380865 1.603348 -2.704020 7.849061 -3.701032 -11.483399 -3.403412 13.729139 -37.570324 1.343025 -75.310295 -42.639980 -94.706413 -13.492643 0.851481 -3.109956 5.640676 0.701691 7.764725 -11.517832 -23.511322 -1.160835 36.742516 -47.427269 78.837982 50.774025 2.553983 1.929843 5.735400 -15.877136 1.650928 -4.286271 32.003494 -0.371989 0.126061 -16.507719 1.349341 -18.773142 -13.253033 -3.175896 2.884625 23.480350 0.254316 15.238097 2.149966 -16.734581 
-0.006747 45.826519 0.097489 -1.337899 -0.195275 -0.951830 10.742188 -0.000002 -0.000000 9.479196 -5.596847 6.588832 -0.000001 -0.000004 31.093756 2.296594 -2.185746 8.779438 -3.662362 -12.135063 -3.731238 15.243290 -40.632427 0.733489 -81.548523 -40.031891 -99.542480 -13.817393 0.858770 -3.090846 5.633617 0.756366 8.309001 -18.154789 -25.809248 -0.629170 49.120956 -38.667458 97.581314 50.180649 2.529294 1.946788 5.423837 -17.404652 1.713024 -4.517871 35.788124 -0.325141 0.352543 -18.551891 1.459979 -20.062189 -15.197062 -3.817253 3.045741 27.933687 0.300307 15.556944 0.425629 -15.991496 
0.008627 45.253628 0.158051 -0.849627 -0.371077 -0.982068 11.484374 0.028711 -0.015600 9.786474 -5.774691 6.835769 -0.000000 -0.000003 31.503902 1.807255 -1.493397 9.744686 -3.630037 -12.520477 -3.916923 13.259846 -42.479954 0.344276 -85.346367 -32.917587 -101.764999 -15.880039 0.971816 -3.054821 5.629570 0.786072 8.620021 -16.390713 -27.187096 -0.329358 56.185738 -25.707550 109.580475 47.077076 2.415879 2.084283 4.885522 -18.286730 1.591902 -4.780894 38.086082 -0.158323 0.641019 -19.875648 1.760097 -21.340248 -16.213402 -3.529496 3.423288 30.490223 0.193084 16.070164 -0.782147 -16.112921 
0.001878 44.714165 0.225467 -0.302750 -0.566415 -0.989371 12.099614 0.066839 -0.022048 9.964849 -5.867792 6.977975 -0.000000 0.000000 31.738283 0.478556 -0.742162 10.728853 -3.609407 -12.742338 -4.020538 9.516988 -43.496006 0.121158 -87.248016 -23.957218 -102.031784 -18.836578 1.130089 -3.005119 5.627273 0.802357 8.775535 -14.667817 -28.027273 -0.165945 58.793167 -12.724360 116.140152 42.723045 2.254359 2.258078 4.321635 -19.628059 1.565671 -5.045783 41.533524 -0.059293 0.806368 -21.744085 2.025792 -22.654760 -17.854918 -3.971787 3.687067 34.522270 0.122945 16.384911 -2.610446 -15.200890 
-0.013758 44.294369 0.291564 0.244162 -0.751959 -0.992846 12.548834 0.066726 -0.022497 10.034256 -5.905028 7.030912 -0.000001 -0.000003 31.884768 -1.123047 -0.009762 11.699025 -3.607327 -12.827820 -4.071998 5.673465 -43.915989 0.013558 -87.982162 -15.578744 -101.499283 -21.968262 1.294845 -2.940860 5.626048 0.810974 8.872723 -12.981154 -28.593735 -0.066732 59.034203 -2.604650 119.460701 38.111618 2.062399 2.434737 3.754351 -20.562141 1.551439 -5.219642 44.149544 -0.103982 1.122914 -23.329027 2.334772 -23.822479 -19.046982 -4.428634 3.839548 37.698895 0.108382 16.526493 -4.032500 -14.438535 
-0.028581 44.080498 0.346165 0.693446 -0.908142 -0.994750 12.792970 0.000000 0.000000 10.044248 -5.914467 7.041708 0.000000 -0.000007 31.992189 -2.500134 0.595135 12.525985 -3.611003 -12.847157 -4.082321 3.398437 -44.003880 0.000000 -88.147057 -10.164216 -101.195465 -24.613306 1.426325 -2.871607 5.625074 0.817678 8.931042 -11.298827 -29.003906 -0.000000 58.552841 2.462441 120.117096 34.234154 1.891594 2.564235 3.238763 -20.863132 1.466497 -5.351099 45.281059 0.021059 1.183246 -23.936745 2.444563 -24.643803 -19.478279 -5.220336 3.771356 39.171276 0.286835 16.517262 -4.609864 -13.702954 
-0.097904 43.970943 0.356933 0.722747 -0.908132 -0.994280 12.959037 -0.161792 0.037230 10.054068 -5.914289 7.042721 0.000000 -0.000007 31.992189 -3.008149 0.858193 13.043142 -3.623641 -12.855131 -4.092420 2.119473 -44.003887 -0.013578 -88.165627 -5.955226 -101.271408 -24.944157 1.437681 -2.864382 5.625074 0.817678 8.931042 -9.882813 -29.003902 -0.000002 58.316475 3.728335 120.815262 35.512962 1.953060 2.520173 3.340364 -21.148710 1.579267 -5.316977 45.948719 -0.112931 1.101439 -24.360952 2.458453 -24.688637 -19.880421 -5.143968 3.838603 40.011406 0.217491 16.481169 -5.053387 -13.603516 
-0.167227 43.861389 0.367701 0.742283 -0.917901 -0.993965 13.125209 -0.313847 0.075397 10.054068 -5.914289 7.042721 0.000000 -0.000007 31.992189 -3.506531 1.120946 13.564179 -3.636348 -12.864039 -4.102539 0.830745 -44.003880 -0.027154 -88.179337 -1.743555 -101.329521 -25.283880 1.459907 -2.853811 5.625074 0.817678 8.931042 -8.457030 -29.003906 0.000001 58.077282 4.983418 121.526085 36.802528 2.009145 2.478087 3.449605 -21.369415 1.619432 -5.390398 46.554276 -0.016626 1.009935 -24.754463 2.367785 -24.720175 -20.249397 -5.350679 3.789651 40.881477 0.425177 16.417870 -5.544727 -13.530528 
-0.236549 43.751835 0.378467 0.761819 -0.927667 -0.993392 13.291461 -0.465698 0.110012 10.054068 -5.914289 7.042721 0.000000 -0.000007 31.992189 -4.005058 1.373592 14.089622 -3.649009 -12.871863 -4.112646 -0.448217 -44.003895 -0.040730 -88.172768 2.462393 -101.388924 -25.628630 1.472147 -2.846134 5.625074 0.817678 8.931042 -7.041016 -29.003906 -0.000000 57.816559 6.237782 122.240585 38.076767 2.065631 2.431693 3.573722 -21.699299 1.636504 -5.517311 47.235313 0.144923 0.916338 -25.094610 2.189037 -24.752573 -20.625940 -4.752063 4.080646 41.673561 0.033174 16.646898 -6.007474 -13.688072 
-0.305872 43.642284 0.389234 0.791122 -0.937423 -0.992915 13.457826 -0.617336 0.147726 10.054243 -5.923902 7.046131 0.000000 -0.000007 31.992189 -4.503792 1.635562 14.620995 -3.660979 -12.871173 -4.122610 -1.727193 -44.013641 -0.054317 -88.168343 6.673793 -101.455032 -25.954666 1.496631 -2.837141 5.625074 0.817678 8.931042 -5.615232 -29.003906 0.000001 57.528374 7.481861 122.981552 39.370468 2.118669 2.384271 3.673488 -21.980421 1.681815 -5.562057 47.887562 0.086110 0.882460 -25.392363 2.292413 -24.810265 -21.001785 -5.402170 3.913538 42.510010 0.384106 16.298193 -6.310307 -13.312374 
-0.375195 43.532722 0.400001 0.810658 -0.947190 -0.992457 13.624296 -0.768757 0.186321 10.054243 -5.923902 7.046131 0.000000 -0.000007 31.992189 -5.002748 1.897049 15.166032 -3.673663 -12.879596 -4.132719 -3.006159 -44.013897 -0.067896 -88.145149 10.886003 -101.530067 -26.299517 1.510516 -2.830027 5.625074 0.817678 8.931042 -4.199219 -29.003902 -0.000000 57.233311 8.719426 123.728836 40.661697 2.168448 2.336047 3.777710 -22.268270 1.758435 -5.594322 48.622078 0.091143 0.721343 -25.808054 2.163946 -24.829874 -21.360790 -5.385846 4.043372 43.344948 0.305168 16.223286 -6.836627 -13.326644 
